<svg width="30" height="30" viewBox="0 0 30 30" fill="currentcolor" xmlns="http://www.w3.org/2000/svg">
<path d="M7.50015 3.43744C7.50032 3.2607 7.45053 3.08752 7.35653 2.93786C7.26252 2.7882 7.12812 2.66816 6.96883 2.59158C6.80954 2.51501 6.63186 2.48502 6.45626 2.50508C6.28067 2.52514 6.11432 2.59442 5.9764 2.70494C4.3389 4.01619 3.44765 5.16494 2.9789 6.16494C2.64136 6.87376 2.47726 7.65269 2.50015 8.43744C2.50015 9.61994 3.0964 10.6624 4.00515 11.2812C3.75533 11.4922 3.54168 11.7425 3.37265 12.0224C2.77765 12.9849 2.50015 14.4562 2.50015 16.5687C2.50015 18.7087 2.78765 21.2787 3.2564 23.3312C3.4889 24.3512 3.77765 25.2924 4.1214 25.9987C4.29265 26.3499 4.5014 26.6924 4.7589 26.9612C5.0164 27.2249 5.41265 27.5062 5.93765 27.5062C6.46265 27.5062 6.8589 27.2249 7.11515 26.9612C7.37606 26.6752 7.59111 26.3505 7.75265 25.9987C8.09765 25.2912 8.3864 24.3512 8.6189 23.3299C9.10692 21.1084 9.36039 18.8419 9.37515 16.5674C9.37515 14.4549 9.09765 12.9849 8.50265 12.0224C8.33362 11.7425 8.11997 11.4922 7.87015 11.2812C8.33395 10.9659 8.71357 10.5419 8.9759 10.0463C9.23823 9.55059 9.3753 8.99825 9.37515 8.43744C9.37515 7.27869 8.83015 6.46994 8.41515 5.85244L8.3789 5.79869C7.8914 5.07244 7.50015 4.47494 7.50015 3.43744ZM4.37515 8.43744C4.37515 8.06494 4.37515 7.60494 4.67765 6.96119C4.88765 6.50994 5.2639 5.93744 5.94265 5.24744C6.1839 5.89369 6.5214 6.39744 6.80765 6.82244L6.82265 6.84494C7.2689 7.50869 7.50015 7.88869 7.50015 8.43744C7.50015 8.85184 7.33553 9.24927 7.04251 9.54229C6.74948 9.83532 6.35205 9.99994 5.93765 9.99994C5.52325 9.99994 5.12582 9.83532 4.8328 9.54229C4.53977 9.24927 4.37515 8.85184 4.37515 8.43744ZM4.37515 16.5687C4.37515 14.5399 4.65765 13.5099 4.96765 13.0074C5.06196 12.8389 5.20306 12.7013 5.3739 12.6112C5.55114 12.533 5.74414 12.497 5.93765 12.5062C6.18765 12.5062 6.3664 12.5449 6.5014 12.6112C6.6264 12.6712 6.7664 12.7799 6.90765 13.0074C7.21765 13.5099 7.50015 14.5399 7.50015 16.5687C7.50015 18.5699 7.22765 20.9999 6.7914 22.9137C6.5714 23.8762 6.3214 24.6574 6.06765 25.1774C6.02733 25.2603 5.98396 25.3416 5.93765 25.4212C5.89134 25.3416 5.84798 25.2603 5.80765 25.1774C5.5539 24.6574 5.3039 23.8749 5.0839 22.9137C4.62813 20.829 4.3906 18.7026 4.37515 16.5687ZM10.6052 17.5962C11.2067 17.8606 11.8463 18.0285 12.5002 18.0937V15.3124C12.5002 14.7789 12.6052 14.2507 12.8094 13.7578C13.0136 13.2649 13.3128 12.8171 13.69 12.4398C14.0673 12.0626 14.5151 11.7633 15.008 11.5592C15.5009 11.355 16.0292 11.2499 16.5627 11.2499H19.3439C19.2412 10.2268 18.8877 9.24476 18.3147 8.39094C17.7416 7.53712 16.9668 6.83788 16.0588 6.35521C15.1508 5.87254 14.1378 5.62136 13.1095 5.62393C12.0812 5.62649 11.0695 5.88274 10.1639 6.36994C9.96934 5.95954 9.74017 5.56645 9.4789 5.19494L9.4164 5.10244L9.19265 4.76244C10.3835 4.10378 11.7206 3.75476 13.0814 3.74742C14.4422 3.74007 15.7831 4.07464 16.9809 4.7204C18.1788 5.36617 19.1952 6.30246 19.937 7.44333C20.6788 8.5842 21.1222 9.89311 21.2264 11.2499H23.4376C23.9711 11.2499 24.4994 11.355 24.9923 11.5592C25.4852 11.7633 25.933 12.0626 26.3103 12.4398C26.6875 12.8171 26.9868 13.2649 27.1909 13.7578C27.3951 14.2507 27.5001 14.7789 27.5001 15.3124V22.1874C27.5001 22.7209 27.3951 23.2492 27.1909 23.7421C26.9868 24.235 26.6875 24.6828 26.3103 25.0601C25.933 25.4373 25.4852 25.7365 24.9923 25.9407C24.4994 26.1449 23.9711 26.2499 23.4376 26.2499H16.5627C15.4852 26.2499 14.4519 25.8219 13.69 25.0601C12.9282 24.2982 12.5002 23.2649 12.5002 22.1874V19.9762C11.8096 19.9235 11.1287 19.7828 10.4739 19.5574C10.5364 18.8949 10.5814 18.2349 10.6052 17.5962ZM23.4376 13.1249H21.1552C20.8894 14.8277 20.0895 16.402 18.8708 17.6206C17.6522 18.8392 16.0779 19.6392 14.3752 19.9049V22.1874C14.3752 23.3949 15.3552 24.3749 16.5627 24.3749H23.4376C24.0178 24.3749 24.5742 24.1445 24.9844 23.7342C25.3947 23.324 25.6251 22.7676 25.6251 22.1874V15.3124C25.6251 14.7323 25.3947 14.1759 24.9844 13.7656C24.5742 13.3554 24.0178 13.1249 23.4376 13.1249ZM14.3752 17.9999C15.5756 17.7535 16.6773 17.1602 17.5439 16.2937C18.4104 15.4271 19.0037 14.3254 19.2502 13.1249H16.5627C15.9825 13.1249 15.4261 13.3554 15.0159 13.7656C14.6056 14.1759 14.3752 14.7323 14.3752 15.3124V17.9999Z" fill="currentcolor"/>
</svg>
